<?xml version="1.0" encoding="UTF-8"?>
<svg width="32" height="32" viewBox="0 0 24 24" fill="none" xmlns="http://www.w3.org/2000/svg">
  <circle cx="12" cy="12" r="11" fill="#10b981"/>
  <path d="M15 12h1.5a2 2 0 0 1 2 2v2a2 2 0 0 1-2 2H15" stroke="white" stroke-width="1.5" stroke-linecap="round" stroke-linejoin="round"/>
  <path d="M5.5 10.5h9v7a2 2 0 0 1-2 2h-5a2 2 0 0 1-2-2v-7z" stroke="white" stroke-width="1.5" stroke-linecap="round" stroke-linejoin="round"/>
  <path d="M7 10.5V8.25c0-.414.336-.75.75-.75h4.5c.414 0 .75.336.75.75V10.5" stroke="white" stroke-width="1.5" stroke-linecap="round" stroke-linejoin="round"/>
  <path d="M6 6.5c1-.667 2.4-2 3-2s1.5.667 2 2" stroke="white" stroke-width="1.5" stroke-linecap="round" stroke-linejoin="round"/>
</svg>