<?xml version="1.0" encoding="UTF-8"?>
<svg width="32" height="32" viewBox="0 0 32 32" fill="none" xmlns="http://www.w3.org/2000/svg">
  <!-- Drop shadow -->
  <filter id="shadow" x="-2" y="-2" width="36" height="36">
    <feDropShadow dx="0" dy="1" stdDeviation="1" flood-opacity="0.3"/>
  </filter>
  <!-- White outline -->
  <path d="M6 8C6 6.89543 6.89543 6 8 6H20C21.1046 6 22 6.89543 22 8V24C22 25.1046 21.1046 26 20 26H8C6.89543 26 6 25.1046 6 24V8Z" stroke="white" stroke-width="3" filter="url(#shadow)"/>
  <!-- Handle -->
  <path d="M22 10H24C25.6569 10 27 11.3431 27 13V17C27 18.6569 25.6569 20 24 20H22" stroke="white" stroke-width="3" filter="url(#shadow)"/>
  <!-- Main mug body -->
  <path d="M6 8C6 6.89543 6.89543 6 8 6H20C21.1046 6 22 6.89543 22 8V24C22 25.1046 21.1046 26 20 26H8C6.89543 26 6 25.1046 6 24V8Z" fill="#3B82F6"/>
  <!-- Handle -->
  <path d="M22 10H24C25.6569 10 27 11.3431 27 13V17C27 18.6569 25.6569 20 24 20H22" stroke="#3B82F6" stroke-width="2"/>
  <!-- Foam -->
  <path d="M8 6C8 4.89543 8.89543 4 10 4H18C19.1046 4 20 4.89543 20 6" fill="#60A5FA"/>
  <path d="M7 8H21" stroke="#FFFFFF" stroke-width="1" stroke-linecap="round"/>
</svg>