<?xml version="1.0" encoding="UTF-8"?>
<svg width="32" height="32" viewBox="0 0 32 32" fill="none" xmlns="http://www.w3.org/2000/svg">
  <circle cx="16" cy="16" r="15" fill="#3B82F6" stroke="white" stroke-width="2"/>
  <path d="M11 10C11 9 12 8 13 8H19C20 8 21 9 21 10V20C21 21 20 22 19 22H13C12 22 11 21 11 20V10Z" fill="white"/>
  <path d="M21 12H23C24 12 25 13 25 14V16C25 17 24 18 23 18H21" stroke="white" stroke-width="2" stroke-linecap="round"/>
  <path d="M11 11H21" stroke="#3B82F6" stroke-width="2"/>
  <path d="M13 8C13 8 14 6 16 6C18 6 19 8 19 8" stroke="white" stroke-width="2"/>
  <path d="M12 13.5C14 12.5 18 12.5 20 13.5" stroke="#3B82F6" stroke-width="1.5" stroke-linecap="round"/>
</svg>