<?xml version="1.0" encoding="UTF-8"?>
<svg width="32" height="32" viewBox="0 0 32 32" fill="none" xmlns="http://www.w3.org/2000/svg">
  <circle cx="16" cy="16" r="16" fill="#F59E0B"/>
  <path d="M22 13h1a3 3 0 0 1 0 6h-1m-8-3v4m4-4v4m-.5-6.5c-1 0-1.44.5-3 .5s-2-.5-3-.5-1.72.5-2.5.5a2.5 2.5 0 0 1 0-5c.78 0 1.57.5 2.5.5s1.94-.5 3.5-.5 2 .5 3 .5 1.72-.5 2.5-.5a2.5 2.5 0 0 1 0 5c-.78 0-1.5-.5-2.5-.5zM10 10v10a2 2 0 0 0 2 2h8a2 2 0 0 0 2-2V10" stroke="white" stroke-width="2" stroke-linecap="round" stroke-linejoin="round"/>
</svg>