<svg xmlns="http://www.w3.org/2000/svg" viewBox="0 0 24 24" fill="none" stroke="#3563E9" stroke-width="2" stroke-linecap="round" stroke-linejoin="round">
  <path d="M11 2c-.8.8-2 2-2 3.5 0 1.5.5 2.5 2 3 1.5.5 2.5-1.2 3-2" />
  <path d="M16 2c-.8.8-2 2-2 3.5 0 1.5.5 2.5 2 3 1.5.5 2-1.2 2.5-2" />
  <path d="M11 16c0-.8-.5-2-2.5-2-1.5 0-2.5.5-3 2-.5 1.5.2 3 2 3.5 1.8.5 3.5-.5 3.5-3.5Z" />
  <path d="M16 16c0-.8.5-2 2.5-2 1.5 0 2.5.5 3 2 .5 1.5-.2 3-2 3.5-1.8.5-3.5-.5-3.5-3.5Z" />
  <path d="M12 10c-1.654 0-3 1.346-3 3s1.346 3 3 3 3-1.346 3-3-1.346-3-3-3Z" />
</svg>